{"accessors" : [{"bufferView" : 0, "byteOffset" : 0, "componentType" : 5123, "count" : 5928, "type" : "SCALAR", "max" : [1671], "min" : [0]}, {"bufferView" : 1, "byteOffset" : 0, "componentType" : 5126, "count" : 1672, "type" : "VEC3", "max" : [0.5780680179595947, 1.5403529405593872, 0.25109800696372986], "min" : [-0.5148770213127136, 0.5939670205116272, -0.2590219974517822], "name" : "POSITION"}, {"bufferView" : 1, "byteOffset" : 12, "componentType" : 5126, "count" : 1672, "type" : "VEC2", "max" : [0.875, 2], "min" : [0.125, 1], "name" : "TEXCOORD_0"}, {"bufferView" : 0, "byteOffset" : 11856, "componentType" : 5123, "count" : 324, "type" : "SCALAR", "max" : [93], "min" : [0]}, {"bufferView" : 2, "byteOffset" : 0, "componentType" : 5126, "count" : 94, "type" : "VEC3", "max" : [0.5173460245132446, 1.1276559829711914, 0.251585990190506], "min" : [-0.5173460245132446, -0.011064000427722931, -0.25144100189208984], "name" : "POSITION"}, {"bufferView" : 2, "byteOffset" : 12, "componentType" : 5126, "count" : 94, "type" : "VEC2", "max" : [0.875, 2], "min" : [0.125, 1], "name" : "TEXCOORD_0"}], "asset" : {"generator" : "Aspose.3D 24.4.1", "version" : "2.0"}, "buffers" : [{"uri" : "data:application/octet-stream;base64,", "byteLength" : 47836}], "bufferViews" : [{"buffer" : 0, "byteOffset" : 0, "byteLength" : 12504, "target" : 34963}, {"buffer" : 0, "byteOffset" : 12508, "byteLength" : 33440, "byteStride" : 20, "target" : 34962}, {"buffer" : 0, "byteOffset" : 45952, "byteLength" : 1880, "byteStride" : 20, "target" : 34962}], "materials" : [{"name" : "lambert3SG", "pbrMetallicRoughness" : {"baseColorFactor" : [0.9, 0.43, 0.06, 1], "metallicFactor" : 0, "roughnessFactor" : 1}, "emissiveFactor" : [0, 0, 0], "alphaMode" : "OPAQUE", "doubleSided" : false}, {"name" : "lambert2SG", "pbrMetallicRoughness" : {"baseColorFactor" : [0.67, 0.02, 0.02, 1], "metallicFactor" : 0, "roughnessFactor" : 1}, "emissiveFactor" : [0, 0, 0], "alphaMode" : "OPAQUE", "doubleSided" : false}], "meshes" : [{"primitives" : [{"attributes" : {"POSITION" : 1, "TEXCOORD_0" : 2}, "indices" : 0, "material" : 0, "mode" : 4}, {"attributes" : {"POSITION" : 4, "TEXCOORD_0" : 5}, "indices" : 3, "material" : 1, "mode" : 4}]}], "nodes" : [{"mesh" : 0, "name" : "Node"}], "scene" : 0, "scenes" : [{"nodes" : [0]}]}